<svg xmlns="http://www.w3.org/2000/svg" xmlns:xlink="http://www.w3.org/1999/xlink" width="350" zoomAndPan="magnify" viewBox="0 0 262.5 262.500001" height="350" preserveAspectRatio="xMidYMid meet" version="1.0"><defs><clipPath id="326e0db8a9"><path d="M 62 40 L 215 40 L 215 245.683594 L 62 245.683594 Z M 62 40 " clip-rule="nonzero"/></clipPath></defs><path fill="#000000" d="M 138.457031 155.046875 C 139.726562 155.046875 140.992188 154.984375 142.253906 154.859375 C 143.515625 154.734375 144.765625 154.550781 146.011719 154.304688 C 147.253906 154.058594 148.480469 153.75 149.695312 153.382812 C 150.910156 153.015625 152.101562 152.589844 153.273438 152.105469 C 154.445312 151.621094 155.589844 151.078125 156.707031 150.484375 C 157.824219 149.886719 158.910156 149.238281 159.964844 148.535156 C 161.019531 147.832031 162.035156 147.078125 163.015625 146.273438 C 163.996094 145.472656 164.933594 144.621094 165.832031 143.726562 C 166.726562 142.832031 167.578125 141.898438 168.382812 140.917969 C 169.1875 139.941406 169.941406 138.925781 170.644531 137.871094 C 171.351562 136.820312 172 135.734375 172.597656 134.621094 C 173.195312 133.503906 173.738281 132.359375 174.222656 131.191406 C 174.707031 130.023438 175.136719 128.832031 175.503906 127.621094 C 175.871094 126.410156 176.179688 125.183594 176.425781 123.941406 C 176.671875 122.703125 176.859375 121.449219 176.984375 120.191406 C 177.109375 118.933594 177.167969 117.667969 177.167969 116.402344 C 177.167969 115.136719 177.109375 113.875 176.984375 112.617188 C 176.859375 111.355469 176.671875 110.105469 176.425781 108.863281 C 176.179688 107.625 175.871094 106.398438 175.503906 105.1875 C 175.136719 103.976562 174.707031 102.785156 174.222656 101.617188 C 173.738281 100.445312 173.195312 99.304688 172.597656 98.1875 C 172 97.070312 171.351562 95.988281 170.644531 94.933594 C 169.941406 93.882812 169.1875 92.867188 168.382812 91.890625 C 167.578125 90.910156 166.726562 89.972656 165.832031 89.078125 C 164.933594 88.183594 163.996094 87.335938 163.015625 86.53125 C 162.035156 85.730469 161.019531 84.976562 159.964844 84.273438 C 158.910156 83.570312 157.824219 82.921875 156.707031 82.324219 C 155.589844 81.726562 154.445312 81.1875 153.273438 80.703125 C 152.101562 80.21875 150.910156 79.792969 149.695312 79.425781 C 148.480469 79.058594 147.253906 78.75 146.011719 78.503906 C 144.765625 78.257812 143.515625 78.070312 142.253906 77.949219 C 140.992188 77.824219 139.726562 77.761719 138.457031 77.761719 C 137.191406 77.761719 135.925781 77.824219 134.664062 77.949219 C 133.402344 78.070312 132.148438 78.257812 130.90625 78.503906 C 129.660156 78.75 128.433594 79.058594 127.21875 79.425781 C 126.007812 79.792969 124.8125 80.21875 123.644531 80.703125 C 122.472656 81.1875 121.328125 81.726562 120.207031 82.324219 C 119.089844 82.921875 118.003906 83.570312 116.949219 84.273438 C 115.894531 84.976562 114.878906 85.730469 113.898438 86.53125 C 112.917969 87.335938 111.980469 88.183594 111.082031 89.078125 C 110.1875 89.972656 109.335938 90.910156 108.53125 91.890625 C 107.726562 92.867188 106.972656 93.882812 106.269531 94.933594 C 105.566406 95.988281 104.914062 97.070312 104.316406 98.1875 C 103.71875 99.304688 103.175781 100.445312 102.691406 101.617188 C 102.207031 102.785156 101.78125 103.976562 101.414062 105.1875 C 101.042969 106.398438 100.738281 107.625 100.488281 108.863281 C 100.242188 110.105469 100.054688 111.355469 99.929688 112.617188 C 99.808594 113.875 99.746094 115.136719 99.746094 116.402344 C 99.746094 117.667969 99.8125 118.929688 99.9375 120.1875 C 100.0625 121.449219 100.25 122.699219 100.5 123.9375 C 100.75 125.179688 101.058594 126.402344 101.429688 127.613281 C 101.796875 128.824219 102.226562 130.011719 102.710938 131.179688 C 103.195312 132.347656 103.738281 133.492188 104.335938 134.605469 C 104.933594 135.722656 105.585938 136.804688 106.292969 137.855469 C 106.996094 138.90625 107.75 139.921875 108.554688 140.898438 C 109.359375 141.875 110.207031 142.8125 111.105469 143.707031 C 112 144.601562 112.9375 145.449219 113.917969 146.253906 C 114.898438 147.054688 115.914062 147.808594 116.96875 148.511719 C 118.019531 149.214844 119.105469 149.867188 120.222656 150.460938 C 121.339844 151.058594 122.484375 151.601562 123.652344 152.085938 C 124.824219 152.570312 126.015625 152.996094 127.226562 153.367188 C 128.441406 153.734375 129.667969 154.042969 130.910156 154.292969 C 132.152344 154.539062 133.40625 154.726562 134.664062 154.855469 C 135.925781 154.980469 137.191406 155.042969 138.457031 155.046875 Z M 138.457031 84.632812 C 139.503906 84.632812 140.546875 84.683594 141.585938 84.785156 C 142.628906 84.890625 143.660156 85.042969 144.6875 85.246094 C 145.714844 85.449219 146.726562 85.703125 147.726562 86.003906 C 148.730469 86.308594 149.710938 86.660156 150.679688 87.058594 C 151.644531 87.457031 152.589844 87.90625 153.511719 88.398438 C 154.433594 88.890625 155.328125 89.425781 156.199219 90.003906 C 157.070312 90.585938 157.910156 91.207031 158.71875 91.867188 C 159.527344 92.53125 160.300781 93.230469 161.039062 93.96875 C 161.777344 94.707031 162.480469 95.480469 163.144531 96.289062 C 163.808594 97.09375 164.429688 97.933594 165.011719 98.800781 C 165.589844 99.667969 166.128906 100.5625 166.621094 101.484375 C 167.113281 102.402344 167.5625 103.347656 167.960938 104.3125 C 168.363281 105.277344 168.714844 106.257812 169.015625 107.257812 C 169.320312 108.253906 169.574219 109.265625 169.777344 110.292969 C 169.984375 111.316406 170.136719 112.347656 170.238281 113.386719 C 170.339844 114.425781 170.394531 115.464844 170.394531 116.511719 C 170.394531 117.554688 170.339844 118.59375 170.238281 119.632812 C 170.136719 120.671875 169.984375 121.707031 169.777344 122.730469 C 169.574219 123.753906 169.320312 124.765625 169.015625 125.761719 C 168.714844 126.761719 168.363281 127.746094 167.960938 128.710938 C 167.5625 129.671875 167.113281 130.617188 166.621094 131.535156 C 166.128906 132.457031 165.589844 133.351562 165.011719 134.21875 C 164.429688 135.089844 163.808594 135.925781 163.144531 136.734375 C 162.480469 137.539062 161.777344 138.3125 161.039062 139.050781 C 160.300781 139.789062 159.527344 140.488281 158.71875 141.152344 C 157.910156 141.8125 157.070312 142.433594 156.199219 143.015625 C 155.328125 143.59375 154.433594 144.132812 153.511719 144.625 C 152.589844 145.117188 151.644531 145.5625 150.679688 145.960938 C 149.710938 146.359375 148.730469 146.710938 147.726562 147.015625 C 146.726562 147.316406 145.714844 147.570312 144.6875 147.773438 C 143.660156 147.976562 142.628906 148.132812 141.585938 148.234375 C 140.546875 148.335938 139.503906 148.386719 138.457031 148.386719 C 137.410156 148.386719 136.367188 148.335938 135.328125 148.234375 C 134.285156 148.132812 133.253906 147.976562 132.226562 147.773438 C 131.203125 147.570312 130.1875 147.316406 129.1875 147.015625 C 128.1875 146.710938 127.203125 146.359375 126.238281 145.960938 C 125.269531 145.5625 124.324219 145.117188 123.402344 144.625 C 122.480469 144.132812 121.585938 143.59375 120.714844 143.015625 C 119.847656 142.433594 119.007812 141.8125 118.199219 141.152344 C 117.390625 140.488281 116.617188 139.789062 115.875 139.050781 C 115.136719 138.3125 114.433594 137.539062 113.769531 136.734375 C 113.109375 135.925781 112.484375 135.089844 111.90625 134.21875 C 111.324219 133.351562 110.785156 132.457031 110.292969 131.535156 C 109.800781 130.617188 109.355469 129.671875 108.953125 128.710938 C 108.554688 127.746094 108.203125 126.761719 107.898438 125.761719 C 107.59375 124.765625 107.339844 123.753906 107.136719 122.730469 C 106.933594 121.707031 106.777344 120.671875 106.675781 119.632812 C 106.574219 118.59375 106.523438 117.554688 106.523438 116.511719 C 106.523438 115.464844 106.574219 114.425781 106.675781 113.386719 C 106.777344 112.347656 106.933594 111.316406 107.136719 110.292969 C 107.339844 109.265625 107.59375 108.253906 107.898438 107.257812 C 108.203125 106.257812 108.554688 105.277344 108.953125 104.3125 C 109.355469 103.347656 109.800781 102.402344 110.292969 101.484375 C 110.785156 100.5625 111.324219 99.667969 111.90625 98.800781 C 112.484375 97.933594 113.109375 97.09375 113.769531 96.289062 C 114.433594 95.480469 115.136719 94.707031 115.875 93.96875 C 116.617188 93.230469 117.390625 92.53125 118.199219 91.867188 C 119.007812 91.207031 119.847656 90.585938 120.714844 90.003906 C 121.585938 89.425781 122.480469 88.890625 123.402344 88.398438 C 124.324219 87.90625 125.269531 87.457031 126.238281 87.058594 C 127.203125 86.660156 128.1875 86.308594 129.1875 86.003906 C 130.1875 85.703125 131.203125 85.449219 132.226562 85.246094 C 133.253906 85.042969 134.285156 84.890625 135.328125 84.785156 C 136.367188 84.683594 137.410156 84.632812 138.457031 84.632812 Z M 138.457031 84.632812 " fill-opacity="1" fill-rule="nonzero"/><g clip-path="url(#326e0db8a9)"><path fill="#000000" d="M 135.65625 244.230469 C 135.820312 244.445312 136.007812 244.636719 136.21875 244.808594 C 136.425781 244.976562 136.652344 245.121094 136.898438 245.242188 C 137.140625 245.359375 137.394531 245.449219 137.65625 245.511719 C 137.921875 245.570312 138.1875 245.601562 138.457031 245.601562 C 138.726562 245.601562 138.996094 245.570312 139.257812 245.511719 C 139.523438 245.449219 139.773438 245.359375 140.019531 245.242188 C 140.261719 245.121094 140.488281 244.976562 140.699219 244.808594 C 140.90625 244.636719 141.09375 244.445312 141.261719 244.230469 L 205.023438 153.59375 L 205.238281 153.273438 C 206.035156 151.832031 206.785156 150.367188 207.488281 148.878906 C 208.191406 147.386719 208.84375 145.875 209.449219 144.34375 C 210.050781 142.8125 210.605469 141.261719 211.109375 139.691406 C 211.613281 138.125 212.0625 136.539062 212.464844 134.941406 C 212.867188 133.34375 213.214844 131.738281 213.507812 130.117188 C 213.804688 128.496094 214.046875 126.867188 214.238281 125.230469 C 214.429688 123.597656 214.566406 121.957031 214.648438 120.3125 C 214.734375 118.667969 214.761719 117.019531 214.738281 115.375 C 214.714844 113.726562 214.640625 112.082031 214.507812 110.441406 C 214.378906 108.800781 214.195312 107.164062 213.957031 105.535156 C 213.722656 103.902344 213.433594 102.285156 213.089844 100.671875 C 212.746094 99.0625 212.355469 97.460938 211.90625 95.878906 C 211.460938 94.292969 210.964844 92.722656 210.417969 91.167969 C 209.871094 89.613281 209.273438 88.082031 208.625 86.566406 C 207.976562 85.050781 207.28125 83.558594 206.535156 82.089844 C 205.792969 80.621094 205 79.175781 204.160156 77.757812 C 203.324219 76.339844 202.4375 74.949219 201.511719 73.589844 C 200.582031 72.226562 199.609375 70.898438 198.59375 69.597656 C 197.578125 68.300781 196.523438 67.039062 195.425781 65.808594 C 194.328125 64.578125 193.191406 63.382812 192.015625 62.226562 C 190.84375 61.070312 189.632812 59.953125 188.382812 58.878906 C 187.136719 57.800781 185.855469 56.761719 184.539062 55.769531 C 183.226562 54.773438 181.878906 53.824219 180.503906 52.914062 C 179.125 52.007812 177.722656 51.144531 176.289062 50.328125 C 174.855469 49.511719 173.398438 48.742188 171.914062 48.019531 C 170.433594 47.296875 168.929688 46.625 167.402344 46 C 165.875 45.375 164.328125 44.800781 162.765625 44.273438 C 161.203125 43.75 159.621094 43.277344 158.027344 42.855469 C 156.433594 42.429688 154.828125 42.0625 153.207031 41.742188 C 151.589844 41.425781 149.960938 41.160156 148.324219 40.945312 C 146.691406 40.730469 145.046875 40.574219 143.402344 40.464844 C 141.753906 40.359375 140.109375 40.304688 138.457031 40.304688 C 136.808594 40.304688 135.160156 40.359375 133.511719 40.464844 C 131.867188 40.574219 130.226562 40.730469 128.589844 40.945312 C 126.953125 41.160156 125.324219 41.425781 123.707031 41.742188 C 122.089844 42.0625 120.480469 42.429688 118.886719 42.855469 C 117.292969 43.277344 115.714844 43.75 114.148438 44.273438 C 112.585938 44.800781 111.039062 45.375 109.511719 46 C 107.988281 46.625 106.484375 47.296875 105 48.019531 C 103.515625 48.742188 102.058594 49.511719 100.625 50.328125 C 99.195312 51.144531 97.789062 52.007812 96.414062 52.914062 C 95.035156 53.824219 93.691406 54.773438 92.375 55.769531 C 91.058594 56.761719 89.777344 57.800781 88.53125 58.878906 C 87.285156 59.953125 86.074219 61.070312 84.898438 62.226562 C 83.722656 63.382812 82.585938 64.578125 81.488281 65.808594 C 80.390625 67.039062 79.335938 68.300781 78.320312 69.597656 C 77.304688 70.898438 76.332031 72.226562 75.40625 73.589844 C 74.476562 74.949219 73.59375 76.339844 72.753906 77.757812 C 71.914062 79.175781 71.125 80.621094 70.378906 82.089844 C 69.632812 83.558594 68.9375 85.050781 68.289062 86.566406 C 67.644531 88.082031 67.046875 89.613281 66.496094 91.167969 C 65.949219 92.722656 65.453125 94.292969 65.007812 95.878906 C 64.5625 97.460938 64.167969 99.0625 63.824219 100.671875 C 63.484375 102.285156 63.195312 103.902344 62.957031 105.535156 C 62.71875 107.164062 62.535156 108.800781 62.40625 110.441406 C 62.277344 112.082031 62.199219 113.726562 62.175781 115.375 C 62.152344 117.019531 62.183594 118.667969 62.265625 120.3125 C 62.347656 121.957031 62.488281 123.597656 62.675781 125.230469 C 62.867188 126.867188 63.109375 128.496094 63.40625 130.117188 C 63.703125 131.738281 64.050781 133.34375 64.449219 134.941406 C 64.851562 136.539062 65.304688 138.125 65.804688 139.691406 C 66.308594 141.261719 66.863281 142.8125 67.46875 144.34375 C 68.070312 145.875 68.726562 147.386719 69.425781 148.878906 C 70.128906 150.367188 70.878906 151.832031 71.679688 153.273438 L 71.890625 153.59375 Z M 69.015625 116.402344 C 69.015625 115.089844 69.054688 113.773438 69.128906 112.460938 C 69.203125 111.144531 69.316406 109.835938 69.46875 108.527344 C 69.617188 107.21875 69.804688 105.917969 70.027344 104.621094 C 70.253906 103.324219 70.515625 102.035156 70.8125 100.753906 C 71.109375 99.472656 71.445312 98.199219 71.816406 96.9375 C 72.183594 95.671875 72.589844 94.421875 73.035156 93.183594 C 73.476562 91.941406 73.953125 90.714844 74.464844 89.503906 C 74.976562 88.292969 75.523438 87.09375 76.101562 85.914062 C 76.683594 84.730469 77.296875 83.566406 77.941406 82.417969 C 78.589844 81.273438 79.265625 80.144531 79.976562 79.039062 C 80.6875 77.929688 81.429688 76.84375 82.203125 75.777344 C 82.976562 74.710938 83.78125 73.667969 84.613281 72.648438 C 85.445312 71.625 86.304688 70.628906 87.195312 69.660156 C 88.082031 68.6875 89 67.742188 89.941406 66.824219 C 90.886719 65.902344 91.855469 65.011719 92.847656 64.148438 C 93.84375 63.28125 94.859375 62.449219 95.902344 61.640625 C 96.945312 60.835938 98.007812 60.058594 99.09375 59.3125 C 100.179688 58.566406 101.285156 57.851562 102.414062 57.167969 C 103.539062 56.484375 104.6875 55.835938 105.847656 55.21875 C 107.011719 54.601562 108.195312 54.015625 109.390625 53.464844 C 110.589844 52.914062 111.800781 52.398438 113.027344 51.914062 C 114.253906 51.433594 115.492188 50.988281 116.746094 50.574219 C 117.996094 50.164062 119.261719 49.789062 120.535156 49.449219 C 121.808594 49.109375 123.089844 48.804688 124.382812 48.539062 C 125.671875 48.273438 126.96875 48.042969 128.273438 47.851562 C 129.578125 47.65625 130.886719 47.5 132.199219 47.382812 C 133.511719 47.265625 134.828125 47.183594 136.144531 47.140625 C 137.460938 47.09375 138.78125 47.089844 140.097656 47.121094 C 141.414062 47.152344 142.730469 47.21875 144.046875 47.324219 C 145.359375 47.429688 146.667969 47.574219 147.976562 47.753906 C 149.28125 47.933594 150.582031 48.152344 151.875 48.40625 C 153.167969 48.660156 154.453125 48.953125 155.730469 49.277344 C 157.007812 49.605469 158.273438 49.96875 159.53125 50.367188 C 160.785156 50.769531 162.03125 51.203125 163.261719 51.671875 C 164.492188 52.144531 165.710938 52.648438 166.910156 53.1875 C 168.113281 53.726562 169.300781 54.296875 170.46875 54.90625 C 171.640625 55.511719 172.792969 56.152344 173.925781 56.824219 C 175.058594 57.496094 176.171875 58.199219 177.265625 58.933594 C 178.359375 59.671875 179.429688 60.4375 180.480469 61.230469 C 181.527344 62.027344 182.554688 62.855469 183.558594 63.707031 C 184.558594 64.5625 185.535156 65.445312 186.488281 66.355469 C 187.441406 67.265625 188.367188 68.203125 189.265625 69.164062 C 190.164062 70.128906 191.035156 71.117188 191.875 72.128906 C 192.71875 73.140625 193.53125 74.175781 194.3125 75.234375 C 195.097656 76.292969 195.851562 77.371094 196.570312 78.472656 C 197.292969 79.574219 197.984375 80.695312 198.640625 81.835938 C 199.296875 82.976562 199.921875 84.136719 200.515625 85.3125 C 201.105469 86.488281 201.664062 87.679688 202.1875 88.886719 C 202.710938 90.09375 203.199219 91.316406 203.652344 92.550781 C 204.105469 93.785156 204.523438 95.035156 204.90625 96.292969 C 205.289062 97.550781 205.636719 98.820312 205.949219 100.101562 C 206.257812 101.378906 206.53125 102.667969 206.769531 103.960938 C 207.003906 105.253906 207.203125 106.554688 207.367188 107.859375 C 207.53125 109.167969 207.65625 110.476562 207.742188 111.789062 C 207.832031 113.101562 207.882812 114.417969 207.894531 115.734375 C 207.90625 117.046875 207.882812 118.363281 207.820312 119.679688 C 207.757812 120.992188 207.660156 122.304688 207.523438 123.613281 C 207.386719 124.921875 207.210938 126.226562 207 127.523438 C 206.789062 128.824219 206.542969 130.113281 206.257812 131.398438 C 205.972656 132.683594 205.648438 133.960938 205.292969 135.226562 C 204.933594 136.492188 204.542969 137.75 204.113281 138.992188 C 203.683594 140.238281 203.21875 141.46875 202.71875 142.6875 C 202.21875 143.902344 201.683594 145.105469 201.117188 146.292969 C 200.546875 147.480469 199.945312 148.652344 199.3125 149.804688 L 138.457031 236.296875 L 77.605469 149.804688 C 74.789062 144.6875 72.652344 139.300781 71.199219 133.644531 C 69.746094 127.988281 69.019531 122.242188 69.015625 116.402344 Z M 69.015625 116.402344 " fill-opacity="1" fill-rule="nonzero"/></g></svg>